<svg xmlns="http://www.w3.org/2000/svg" viewBox="0 0 400 400" font-family="'IBM Plex Mono',ui-monospace,monospace"><rect width="400" height="400" fill="#141515"/><path d="M24 31h14M31 24v14M362 31h14M369 24v14M24 369h14M31 362v14M362 369h14M369 362v14" stroke="#FFFFFF" stroke-opacity="0.3"/><path d="M40 250h320" stroke="#FFFFFF" stroke-opacity="0.1"/><g fill="#FFFFFF" font-size="12" letter-spacing="1"><text x="48" y="35" fill-opacity="0.5">STRIDEMON</text><text x="352" y="35" text-anchor="end">#0002</text></g><g transform="translate(10 0)"><path d="M12 168h34" stroke="#C1FF00" stroke-width="1.5" stroke-linecap="round" stroke-opacity="0.86"/><g fill="none" stroke="#FFFFFF" stroke-width="1.5" stroke-linecap="round" stroke-linejoin="round"><path d="M86 236H288C314 236 334 230 342 220C345 216 344 212 340 211L150 204C122 203 96 199 78 198C72 212 74 228 86 236Z"/><path d="M78 198C68 174 66 150 74 126C94 134 114 142 132 142C138 130 144 116 150 110C156 108 164 112 168 120L250 170C292 178 324 192 340 211"/><path d="M74 126l-5-14"/><path d="M183 123l-8 10M197 131l-8 10M211 140l-8 10M225 148l-8 10M239 157l-8 10"/><path d="M90 228H300" stroke-opacity="0.3"/><path d="M300 182C312 190 318 198 320 206" stroke-opacity="0.5"/></g><path d="M88 184C134 190 182 174 218 150" fill="none" stroke="#C1FF00" stroke-width="2" stroke-linecap="round" stroke-opacity="0.86"/></g><g fill="#FFFFFF" font-size="11" letter-spacing="1"><text x="40" y="294" fill-opacity="0.5">LEVEL</text><text x="360" y="294" text-anchor="end">01 / 30</text></g><g fill="#34393F"><rect x="51" y="304" width="2" height="10"/><rect x="62" y="304" width="2" height="10"/><rect x="73" y="304" width="2" height="10"/><rect x="84" y="304" width="2" height="10"/><rect x="95" y="304" width="2" height="10"/><rect x="106" y="304" width="2" height="10"/><rect x="117" y="304" width="2" height="10"/><rect x="128" y="304" width="2" height="10"/><rect x="139" y="304" width="2" height="10"/><rect x="150" y="304" width="2" height="10"/><rect x="161" y="304" width="2" height="10"/><rect x="172" y="304" width="2" height="10"/><rect x="183" y="304" width="2" height="10"/><rect x="194" y="304" width="2" height="10"/><rect x="205" y="304" width="2" height="10"/><rect x="216" y="304" width="2" height="10"/><rect x="227" y="304" width="2" height="10"/><rect x="238" y="304" width="2" height="10"/><rect x="249" y="304" width="2" height="10"/><rect x="260" y="304" width="2" height="10"/><rect x="271" y="304" width="2" height="10"/><rect x="282" y="304" width="2" height="10"/><rect x="293" y="304" width="2" height="10"/><rect x="304" y="304" width="2" height="10"/><rect x="315" y="304" width="2" height="10"/><rect x="326" y="304" width="2" height="10"/><rect x="337" y="304" width="2" height="10"/><rect x="348" y="304" width="2" height="10"/><rect x="359" y="304" width="2" height="10"/></g><g fill="#C1FF00"><rect x="40" y="304" width="2" height="10"/></g><g fill="#FFFFFF" font-size="11" letter-spacing="1"><text x="40" y="336" fill-opacity="0.5">DURABILITY</text><text x="360" y="336" text-anchor="end">078 / 100</text></g><rect x="40" y="346" width="320" height="2" fill="#34393F"/><rect x="40" y="346" width="249" height="2" fill="#C1FF00"/></svg>