<svg xmlns="http://www.w3.org/2000/svg" viewBox="0 0 1000 1000" font-family="'IBM Plex Mono',ui-monospace,monospace"><rect width="1000" height="1000" fill="#F0F1FA"/><path d="M20 32h24M32 20v24M20 968h24M32 956v24M956 32h24M968 20v24M956 968h24M968 956v24" stroke="#141515" stroke-opacity="0.3" stroke-width="2"/><g fill="#141515" font-size="28" letter-spacing="2.5"><text x="64" y="98">FOUNDING PASS</text><text x="936" y="98" text-anchor="end">#0815</text></g><path d="M64 130H936" stroke="#D8D9E1" stroke-width="2"/><ellipse cx="500" cy="623" rx="400" ry="22" fill="#E0E2EC"/><g transform="translate(30 124) scale(0.94)"><defs><clipPath id="pass815"><path d="M100 516 80 508 70 490 68 460 66 420 70 370 80 320 94 286 120 274 160 278 206 292 244 298 282 286 310 266 324 244 346 230 374 230 388 244 392 258 640 350 720 372 800 388 870 404 920 420 950 436 958 454 950 470 920 482 898 492 880 494 870 520 860 494 820 494 810 520 800 494 760 494 750 520 740 494 700 494 690 520 680 494 640 494 630 520 620 494 560 494 520 498 470 504 400 510 300 514 200 516Z"/></clipPath></defs><path d="M84 333 66 257 72 243 99 236 112 245 131 321Z" fill="#C1FF00" stroke="#141515" stroke-width="8" stroke-linejoin="round"/><path d="M82 278 91 260 107 271 110 281 93 270 84 287Z" fill="#141515"/><g clip-path="url(#pass815)" stroke="#141515" stroke-width="7" stroke-linejoin="round"><path d="M0 0 1000 0 1000 600 0 600Z" fill="#EDE0FF"/><path d="M316 200 440 200 440 280 340 330 316 320Z" fill="#C3A1FF"/><path d="M186 330 580 400 186 456 260 396Z" fill="#8C55F0"/><path d="M0 260 140 280 180 340 186 460 0 460Z" fill="#C3A1FF"/><path d="M386 204 700 322 625 389 377 297Z" fill="#8C55F0"/><path d="M700 340 1000 340 1000 480 670 480 680 410Z" fill="#C3A1FF"/><path d="M40 230 340 230 330 262 300 290 256 314 206 310 160 300 120 300 84 318 40 318Z" fill="#5C2DB0"/><path d="M0 446 400 460 1000 468 1000 600 0 600Z" fill="#F5F0E3"/><path d="M0 504 480 500 1000 482 1000 600 0 600Z" fill="#5C2DB0"/><path d="M500 486 1000 474 1000 600 500 600Z" fill="#8C55F0"/></g><path d="M100 516 80 508 70 490 68 460 66 420 70 370 80 320 94 286 120 274 160 278 206 292 244 298 282 286 310 266 324 244 346 230 374 230 388 244 392 258 640 350 720 372 800 388 870 404 920 420 950 436 958 454 950 470 920 482 898 492 880 494 870 520 860 494 820 494 810 520 800 494 760 494 750 520 740 494 700 494 690 520 680 494 640 494 630 520 620 494 560 494 520 498 470 504 400 510 300 514 200 516Z" fill="none" stroke="#141515" stroke-width="18" stroke-linejoin="round"/><g fill="#141515"><circle cx="408" cy="292" r="9"/><circle cx="457" cy="310" r="9"/><circle cx="507" cy="328" r="9"/><circle cx="557" cy="347" r="9"/><circle cx="606" cy="365" r="9"/></g></g><path d="M64 802H936" stroke="#D8D9E1" stroke-width="2"/><text x="64" y="878" fill="#141515" font-size="44">Plum Spike Dawn</text><g fill="#141515" font-size="28" letter-spacing="2.5"><text x="64" y="926" fill-opacity="0.5">COMMON · 1 OF 1</text></g></svg>